In 1942, several hundred Navajo Americans were recruited as Marines and trained to use their language as code. Marine Joe Enders (Nicolas Cage) is assigned to protect Ben Yahzee (Adam Beach) - a Navajo code talker, the Marines' new secret weapon. Enders' orders are to protect his code talker, but if Yahzee should fall into enemy hands, he's to "protect the code at all costs." Against the backdrop of the horrific Battle of Saipan, when capture is imminent, Enders is forced to make a decision: if he can't protect his fellow Marine, can he bring himself to kill him to protect the code?

An epic World War II adventure from action-maestro John Woo!

Format : MPEG-4
Format profile : Base Media / Version 2
Codec ID : mp42
File size : 1.95 GiB
Duration : 2h 8mn
Overall bit rate : 2 164 Kbps
Encoded date : UTC 2010-05-23 20:20:36
Tagged date : UTC 2010-05-24 02:52:51
Writing application : HandBrake 0.9.3 2008112300

Video
ID : 1
Format : AVC
Format/Info : Advanced Video Codec
Format profile : Main@L4.0
Format settings, CABAC : Yes
Format settings, ReFrames : 3 frames
Codec ID : avc1
Codec ID/Info : Advanced Video Coding
Duration : 2h 8mn
Bit rate mode : Variable
Bit rate : 2 000 Kbps
Width : 716 pixels
Height : 420 pixels
Display aspect ratio : 2.40:1
Frame rate mode : Variable
Frame rate : 25.000 fps
Minimum frame rate : 12.500 fps
Maximum frame rate : 25.000 fps
Resolution : 8 bits
Colorimetry : 4:2:0
Scan type : Progressive
Bits/(Pixel*Frame) : 0.266
Stream size : 1.80 GiB (92%)
Writing library : x264 core 65

Language : English
Encoded date : UTC 2010-05-23 20:20:36
Tagged date : UTC 2010-05-24 02:52:51
Color primaries : BT.601-6 525, BT.1358 525, BT.1700 NTSC, SMPTE 170M
Transfer characteristics : BT.709-5, BT.1361
Matrix coefficients : BT.601-6 525, BT.1358 525, BT.1700 NTSC, SMPTE 170M

Audio
ID : 2
Format : AAC
Format/Info : Advanced Audio Codec
Format version : Version 4
Format profile : LC
Format settings, SBR : No
Codec ID : 40
Duration : 2h 8mn
Bit rate mode : Variable
Bit rate : 160 Kbps
Maximum bit rate : 232 Kbps
Channel(s) : 2 channels
Channel positions : L R
Sampling rate : 48.0 KHz
Stream size : 147 MiB (7%)
Language : English
Encoded date : UTC 2010-05-23 20:20:36
Tagged date : UTC 2010-05-24 02:52:48
